<?xml version="1.0" standalone="no"?>
<!DOCTYPE svg PUBLIC "-//W3C//DTD SVG 20010904//EN"
 "http://www.w3.org/TR/2001/REC-SVG-20010904/DTD/svg10.dtd">
<svg version="1.0" xmlns="http://www.w3.org/2000/svg"
 width="200.000000pt" height="210.000000pt" viewBox="0 0 200.000000 210.000000"
 preserveAspectRatio="xMidYMid meet">

<g transform="translate(0.000000,210.000000) scale(0.100000,-0.100000)"
fill="#000000" stroke="none">
<path d="M395 2090 c-159 -32 -272 -122 -327 -259 -21 -54 -22 -70 -26 -465
-5 -528 7 -636 81 -744 37 -55 125 -113 209 -138 97 -29 300 -26 387 5 85 30
164 83 207 139 38 50 41 62 18 62 -28 0 -73 33 -89 66 -28 60 -14 129 32 160
l25 16 -24 25 c-32 35 -32 112 2 148 l23 25 -155 0 -156 0 -4 -181 c-3 -176
-4 -181 -27 -200 -30 -24 -66 -24 -90 0 -29 29 -33 102 -29 586 2 334 6 445
16 462 14 26 51 38 87 29 36 -9 45 -57 45 -258 l0 -178 205 0 205 0 0 -120 0
-120 25 0 c15 0 41 -14 61 -33 30 -27 37 -41 38 -74 0 -22 -8 -56 -18 -75 -19
-35 -19 -36 3 -71 l22 -36 34 21 35 20 0 -46 c0 -32 -5 -48 -17 -55 -16 -9
-16 -12 5 -49 12 -22 22 -42 22 -46 0 -11 -128 -6 -132 5 -2 7 -13 9 -26 5
l-22 -7 27 -50 c36 -66 100 -124 181 -162 60 -29 76 -32 162 -32 87 0 100 3
149 30 30 17 67 47 82 68 l28 38 17 -55 18 -56 133 0 133 0 0 425 0 425 -245
0 -245 0 0 -120 0 -120 46 0 47 0 -5 -156 c-5 -134 -8 -160 -25 -183 -29 -38
-76 -41 -100 -5 -17 26 -18 62 -18 530 0 480 1 503 19 523 22 24 54 27 82 7
17 -13 19 -30 22 -170 l3 -156 210 0 209 0 0 38 c0 101 -22 266 -42 319 -25
69 -96 148 -167 187 -68 37 -190 66 -276 66 -155 0 -263 -38 -354 -125 -70
-67 -100 -129 -108 -226 -3 -38 -7 -68 -9 -66 -2 2 -10 39 -18 83 -24 142 -84
220 -209 280 -106 49 -272 68 -392 44z"/>
<path d="M984 1065 c-3 -8 -2 -27 3 -42 l10 -28 16 26 c19 28 14 59 -9 59 -8
0 -17 -7 -20 -15z"/>
<path d="M974 835 c-7 -30 2 -59 16 -50 13 8 13 75 0 75 -5 0 -12 -11 -16 -25z"/>
<path d="M954 443 c-12 -2 -32 -15 -45 -29 -19 -21 -24 -36 -24 -84 0 -67 16
-90 92 -138 24 -15 46 -37 49 -48 9 -34 1 -69 -16 -69 -11 0 -16 13 -18 48
l-3 47 -50 0 -49 0 0 -46 c0 -76 27 -109 97 -120 49 -7 103 8 129 37 22 25 26
129 6 166 -7 12 -39 38 -72 59 -57 35 -60 39 -60 75 0 28 4 39 15 39 10 0 15
-11 15 -35 l0 -35 55 0 c52 0 55 1 55 25 0 14 -6 41 -14 60 -19 45 -82 64
-162 48z"/>
<path d="M1670 432 c-55 -27 -61 -48 -58 -219 3 -144 4 -153 27 -177 35 -37
85 -44 121 -18 23 18 29 19 34 7 3 -9 19 -15 41 -15 l35 0 0 115 0 115 -65 0
-65 0 0 -30 c0 -16 5 -30 11 -30 6 0 9 -21 7 -52 -2 -39 -7 -53 -18 -53 -13 0
-15 24 -18 144 -1 88 1 148 8 155 15 15 22 2 27 -49 l6 -45 55 0 55 0 -7 52
c-8 59 -26 84 -73 104 -43 19 -81 18 -123 -4z"/>
<path d="M180 225 l0 -215 90 0 90 0 0 45 c0 45 0 45 -35 45 l-35 0 0 170 0
170 -55 0 -55 0 0 -215z"/>
<path d="M390 225 l0 -215 95 0 95 0 0 45 0 45 -40 0 -40 0 0 45 c0 45 0 45
35 45 34 0 35 1 35 40 0 39 -1 40 -35 40 -34 0 -35 1 -35 40 l0 40 40 0 40 0
0 45 0 45 -95 0 -95 0 0 -215z"/>
<path d="M622 268 c-13 -95 -26 -192 -29 -215 l-6 -43 57 0 56 0 0 40 c0 36 3
40 25 40 21 0 26 -6 31 -40 l7 -40 48 0 c42 0 49 3 49 19 0 16 -38 274 -55
379 l-6 32 -77 0 -77 0 -23 -172z m121 -55 c6 -52 5 -53 -19 -53 -23 0 -25 3
-20 28 3 15 8 54 12 87 7 57 8 58 15 25 3 -19 9 -59 12 -87z"/>
<path d="M1170 225 l0 -215 55 0 55 0 0 215 0 215 -55 0 -55 0 0 -215z"/>
<path d="M1320 225 l0 -215 45 0 44 0 3 93 3 92 29 -92 30 -93 48 0 48 0 0
215 0 215 -45 0 -44 0 -3 -92 -3 -93 -30 93 -30 92 -47 0 -48 0 0 -215z"/>
</g>
</svg>
