<svg width="258" height="280" viewBox="0 0 258 280" fill="none" xmlns="http://www.w3.org/2000/svg">
<path d="M47.6667 1.33316C26.4667 5.59983 11.4001 17.5998 4.06673 35.8665C1.26673 43.0665 1.13339 45.1998 0.600059 97.8665C-0.0666082 168.267 1.53339 182.667 11.4001 197.067C16.3334 204.4 28.0667 212.133 39.2667 215.467C52.2001 219.333 79.2667 218.933 90.8667 214.8C102.2 210.8 112.733 203.733 118.467 196.267C123.533 189.6 123.933 188 120.867 188C117.133 188 111.133 183.6 109 179.2C105.267 171.2 107.133 162 113.267 157.867L116.6 155.733L113.4 152.4C109.133 147.733 109.133 137.466 113.667 132.666L116.733 129.333H96.0667H75.2667L74.7334 153.467C74.3334 176.933 74.2001 177.6 71.1334 180.133C67.1334 183.333 62.3334 183.333 59.1334 180.133C55.2667 176.267 54.7334 166.533 55.2667 102C55.5334 57.4665 56.0667 42.6665 57.4001 40.3998C59.2667 36.9332 64.2001 35.3332 69.0001 36.5332C73.8001 37.7332 75.0001 44.1332 75.0001 70.9332V94.6665H102.333H129.667V110.666V126.666H133C135 126.666 138.467 128.533 141.133 131.066C145.133 134.666 146.067 136.533 146.2 140.933C146.2 143.867 145.133 148.4 143.8 150.933C141.267 155.6 141.267 155.733 144.2 160.4L147.133 165.2L151.667 162.4L156.333 159.733V165.867C156.333 170.133 155.667 172.267 154.067 173.2C151.933 174.4 151.933 174.8 154.733 179.733C156.333 182.667 157.667 185.333 157.667 185.867C157.667 187.333 140.6 186.667 140.067 185.2C139.8 184.267 138.333 184 136.6 184.533L133.667 185.467L137.267 192.133C142.067 200.933 150.6 208.667 161.4 213.733C169.4 217.6 171.533 218 183 218C194.6 218 196.333 217.6 202.867 214C206.867 211.733 211.8 207.733 213.8 204.933L217.533 199.867L219.8 207.2L222.2 214.667H239.933H257.667V158V101.333H225H192.333V117.333V133.333H198.467H204.733L204.067 154.133C203.4 172 203 175.467 200.733 178.533C196.867 183.6 190.6 184 187.4 179.2C185.133 175.733 185 170.933 185 108.533C185 44.5332 185.133 41.4665 187.533 38.7998C190.467 35.5998 194.733 35.1998 198.467 37.8665C200.733 39.5998 201 41.8665 201.4 60.5332L201.8 81.3332H229.8H257.667V76.2665C257.667 62.7998 254.733 40.7998 252.067 33.7332C248.733 24.5332 239.267 13.9998 229.8 8.79983C220.733 3.86649 204.467 -0.000174138 193 -0.000174138C172.333 -0.000174138 157.933 5.06649 145.8 16.6665C136.467 25.5998 132.467 33.8665 131.4 46.7998C131 51.8665 130.467 55.8665 130.2 55.5998C129.933 55.3332 128.867 50.3998 127.8 44.5332C124.6 25.5998 116.6 15.1998 99.9334 7.19983C85.8001 0.666493 63.6667 -1.86684 47.6667 1.33316Z" fill="white"/>
<path d="M126.2 138C125.8 139.067 125.933 141.6 126.6 143.6L127.933 147.333L130.067 143.867C132.6 140.133 131.933 136 128.867 136C127.8 136 126.6 136.933 126.2 138Z" fill="white"/>
<path d="M124.867 168.667C123.933 172.667 125.133 176.533 127 175.333C128.733 174.267 128.733 165.333 127 165.333C126.333 165.333 125.4 166.8 124.867 168.667Z" fill="white"/>
<path d="M122.2 220.933C120.6 221.2 117.933 222.933 116.2 224.8C113.667 227.6 113 229.6 113 236C113 244.933 115.133 248 125.267 254.4C128.467 256.4 131.4 259.333 131.8 260.8C133 265.333 131.933 270 129.667 270C128.2 270 127.533 268.267 127.267 263.6L126.867 257.333H120.2H113.667V263.467C113.667 273.6 117.267 278 126.6 279.467C133.133 280.4 140.333 278.4 143.8 274.533C146.733 271.2 147.267 257.333 144.6 252.4C143.667 250.8 139.4 247.333 135 244.533C127.4 239.867 127 239.333 127 234.533C127 230.8 127.533 229.333 129 229.333C130.333 229.333 131 230.8 131 234V238.667H138.333C145.267 238.667 145.667 238.533 145.667 235.333C145.667 233.467 144.867 229.867 143.8 227.333C141.267 221.333 132.867 218.8 122.2 220.933Z" fill="white"/>
<path d="M217.667 222.4C210.333 226 209.533 228.8 209.933 251.6C210.333 270.8 210.467 272 213.533 275.2C218.2 280.133 224.867 281.067 229.667 277.6C232.733 275.2 233.533 275.067 234.2 276.667C234.6 277.867 236.733 278.667 239.667 278.667H244.333V263.333V248H235.667H227V252C227 254.133 227.667 256 228.467 256C229.267 256 229.667 258.8 229.4 262.933C229.133 268.133 228.467 270 227 270C225.267 270 225 266.8 224.6 250.8C224.467 239.067 224.733 231.067 225.667 230.133C227.667 228.133 228.6 229.867 229.267 236.667L230.067 242.667H237.4H244.733L243.8 235.733C242.733 227.867 240.333 224.533 234.067 221.867C228.333 219.333 223.267 219.467 217.667 222.4Z" fill="white"/>
<path d="M19 250V278.667H31H43V272.667C43 266.667 43 266.667 38.3333 266.667H33.6667V244V221.333H26.3333H19V250Z" fill="white"/>
<path d="M47 250V278.667H59.6667H72.3333V272.667V266.667H67H61.6667V260.667C61.6667 254.667 61.6667 254.667 66.3333 254.667C70.8667 254.667 71 254.533 71 249.333C71 244.133 70.8667 244 66.3333 244C61.8 244 61.6667 243.867 61.6667 238.667V233.333H67H72.3333V227.333V221.333H59.6667H47V250Z" fill="white"/>
<path d="M77.9335 244.267C76.2002 256.933 74.4668 269.867 74.0668 272.933L73.2668 278.667H80.8668H88.3335V273.333C88.3335 268.533 88.7335 268 91.6668 268C94.4668 268 95.1335 268.8 95.8002 273.333L96.7335 278.667H103.134C108.734 278.667 109.667 278.267 109.667 276.133C109.667 274 104.6 239.6 102.334 225.6L101.534 221.333H91.2668H81.0002L77.9335 244.267ZM94.0668 251.6C94.8668 258.533 94.7335 258.667 91.5335 258.667C88.4668 258.667 88.2002 258.267 88.8668 254.933C89.2668 252.933 89.9335 247.733 90.4668 243.333C91.4002 235.733 91.5335 235.6 92.4668 240C92.8668 242.533 93.6668 247.867 94.0668 251.6Z" fill="white"/>
<path d="M151 250V278.667H158.333H165.667V250V221.333H158.333H151V250Z" fill="white"/>
<path d="M171 250V278.667H177H182.867L183.267 266.267L183.667 254L187.533 266.267L191.533 278.667H197.933H204.333V250V221.333H198.333H192.467L192.067 233.6L191.667 246L187.667 233.6L183.667 221.333H177.4H171V250Z" fill="white"/>
</svg>
